# xmcd
#
# Track frame offsets:
#	150
#	15665
#	26735
#	53141
#	66294
#	80119
#	90772
#	104810
#	114804
#	133169
#	147257
#	160972
#	181305
#	199117
#	213951
#	227288
#
# Disc length: 3190 seconds
#
# Revision: 1
# Processed by: cddbd v1.5.2PL0 Copyright (c) Steve Scherf et al.
# Submitted via: audiograbber 1.83.01
#
DISCID=d60c7410
DTITLE=Louis Armstrong - Classic Louis Armstrong - The Universal Masters Collec
DTITLE=tion
DYEAR=2008
DGENRE=Jazz
TTITLE0=La Vie En Rose
TTITLE1=Hello, Dolly!
TTITLE2=On The Sunny Side Of The Street
TTITLE3=Blueberry Hill
TTITLE4=C'est Si Bon
TTITLE5=The Dummy Song
TTITLE6=Chloe (Song Of The Swamp)
TTITLE7=I Still Get Jealous
TTITLE8=When You're Smiling (The Whole World Smiles With You)
TTITLE9=Kiss Of Fire - Single Version
TTITLE10=Sittin' In The Sun
TTITLE11=A Kiss To Build A Dream On
TTITLE12=High Society
TTITLE13=When It's Sleepy Time Down South
TTITLE14=It Takes Two To Tango
TTITLE15=La Cucaracha
EXTD=YEAR: 2008
EXTT0=
EXTT1=
EXTT2=
EXTT3=
EXTT4=
EXTT5=
EXTT6=
EXTT7=
EXTT8=
EXTT9=
EXTT10=
EXTT11=
EXTT12=
EXTT13=
EXTT14=
EXTT15=
PLAYORDER=
